<svg xmlns="http://www.w3.org/2000/svg" viewBox="0 0 24.002 44.395">
  <defs>
    <style>
      .cls-1 {
        fill: #1a1a1a;
      }
    </style>
  </defs>
  <path id="Path_10" data-name="Path 10" class="cls-1" d="M45.175.009,39.418,0C32.951,0,28.771,4.288,28.771,10.926v5.037H22.982a.905.905,0,0,0-.905.906v7.3a.905.905,0,0,0,.905.905h5.788V43.49a.9.9,0,0,0,.905.905h7.552a.905.905,0,0,0,.905-.905V25.073H44.9a.9.9,0,0,0,.905-.905l0-7.3a.906.906,0,0,0-.906-.906h-6.77v-4.27c0-2.053.489-3.094,3.163-3.094h3.878a.905.905,0,0,0,.9-.905V.914A.906.906,0,0,0,45.175.009Z" transform="translate(-22.077)"/>
</svg>
