<svg id="instagram-logo" xmlns="http://www.w3.org/2000/svg" viewBox="0 0 40 40">
  <defs>
    <style>
      .cls-1 {
        fill: #1a1a1a;
      }
    </style>
  </defs>
  <path id="Path_13" data-name="Path 13" class="cls-1" d="M28.961,0H11.038A11.051,11.051,0,0,0,0,11.039V28.961A11.051,11.051,0,0,0,11.038,40H28.961A11.051,11.051,0,0,0,40,28.961V11.039A11.051,11.051,0,0,0,28.961,0Zm7.49,28.961a7.5,7.5,0,0,1-7.49,7.49H11.038a7.5,7.5,0,0,1-7.489-7.49V11.039a7.5,7.5,0,0,1,7.489-7.49H28.961a7.5,7.5,0,0,1,7.49,7.49V28.961Z"/>
  <path id="Path_14" data-name="Path 14" class="cls-1" d="M51.275,40.97A10.307,10.307,0,1,0,61.582,51.277,10.319,10.319,0,0,0,51.275,40.97Zm0,17.064a6.758,6.758,0,1,1,6.758-6.758A6.765,6.765,0,0,1,51.275,58.034Z" transform="translate(-31.275 -31.277)"/>
  <path id="Path_15" data-name="Path 15" class="cls-1" d="M121.524,28.251a2.6,2.6,0,1,0,1.841.762A2.613,2.613,0,0,0,121.524,28.251Z" transform="translate(-90.784 -21.567)"/>
</svg>
