<?xml version="1.0" encoding="utf-8"?>
<!-- Generator: Adobe Illustrator 23.0.3, SVG Export Plug-In . SVG Version: 6.00 Build 0)  -->
<svg version="1.1" id="Layer_1" xmlns="http://www.w3.org/2000/svg" xmlns:xlink="http://www.w3.org/1999/xlink" x="0px" y="0px"
	 viewBox="0 0 1008 232" style="enable-background:new 0 0 1008 232;" xml:space="preserve">
<style type="text/css">
	.st0{fill:none;}
	.st1{enable-background:new    ;}
	.st2{fill:#FFFFFF;}
	.st3{fill:#E2E1E0;}
	.st4{clip-path:url(#SVGID_2_);fill:#FFFFFF;}
</style>
<rect x="223.9" y="48.8" class="st0" width="794.1" height="135.2"/>
<g class="st1">
	<path class="st2" d="M329.3,78.2L302.8,87c-3.6-10.5-11.1-15.8-22.7-15.8c-12.3,0-18.5,4-18.5,12c0,3.2,1.2,5.9,3.5,8.1
		c2.3,2.2,7.5,4.1,15.7,5.8c13.6,2.7,23.5,5.5,29.8,8.3c6.3,2.8,11.6,7.3,15.9,13.5c4.3,6.2,6.5,13.2,6.5,20.8
		c0,12-4.6,22.5-13.9,31.2c-9.3,8.8-23,13.2-41.2,13.2c-13.7,0-25.3-3.1-34.9-9.3c-9.6-6.2-15.9-15.4-19-27.7l28.9-6.5
		c3.2,12.4,12.3,18.7,27.1,18.7c7.1,0,12.5-1.4,16-4.2c3.5-2.8,5.3-6.1,5.3-9.9c0-3.9-1.6-6.9-4.8-9.1c-3.2-2.1-9.3-4.2-18.4-6.1
		c-17-3.5-29.1-8.3-36.3-14.4s-10.8-15-10.8-26.7c0-11.8,4.3-21.8,12.9-30c8.6-8.1,20.3-12.2,35.1-12.2
		C305,46.8,321.9,57.3,329.3,78.2z"/>
	<path class="st2" d="M458.4,48.9v83c0,13.4-1.5,23.4-4.6,29.9c-3.1,6.5-8.7,11.9-16.9,16.1c-8.2,4.2-18.8,6.3-31.6,6.3
		c-12.8,0-23-1.9-30.6-5.7c-7.6-3.8-13.3-9.1-17-16.1c-3.8-7-5.7-17.2-5.7-30.6v-83h33.9v83c0,7.2,0.6,12.4,1.8,15.8
		c1.2,3.4,3.6,6.1,7.2,8.1c3.6,2,8.1,3,13.3,3c5.9,0,10.6-1,14.3-2.9c3.7-2,6.1-4.5,7.3-7.8c1.2-3.2,1.8-8.6,1.8-16.2v-83H458.4z"/>
	<path class="st2" d="M483.2,48.9h62.1c11.1,0,19.5,1.4,25.1,4.1c5.6,2.7,10.2,6.6,13.9,11.7c3.6,5.1,5.5,11.3,5.5,18.5
		c0,14.8-8,24.6-24,29.6c9.2,2.1,16.2,6.2,20.8,12.4c4.6,6.2,6.9,12.9,6.9,20.2c0,10-3.8,18.6-11.3,25.8
		c-7.6,7.3-19.8,10.9-36.8,10.9h-62.1V48.9z M514.4,72.4v29.2H538c8.7,0,14.1-1.7,16.4-5.1s3.4-6.7,3.4-9.8c0-3.4-0.9-6.3-2.8-8.7
		s-3.9-4-6.1-4.6c-2.2-0.6-6.6-0.9-13.1-0.9H514.4z M514.4,125.3v32.1h24c8.2,0,14-1.4,17.3-4.3c3.4-2.9,5.1-6.9,5.1-12
		c0-4.3-1.6-8-4.9-11.1c-3.2-3.1-8.6-4.7-16.2-4.7H514.4z"/>
	<path class="st2" d="M716.4,48.9v133.3h-30.7v-55h-41.6v55h-30.7V48.9h30.7v52h41.6v-52H716.4z"/>
	<path class="st2" d="M774.4,48.9v133.3h-31.2V48.9H774.4z"/>
	<path class="st2" d="M900.2,48.9L860,182.2h-33.6l-40-133.3h33.2l26.7,95.3l27.8-95.3H900.2z"/>
	<path class="st2" d="M1007.5,74.2H944v27.3h49.9v25.1H944v29.1h63.5v26.4h-95.2V48.9h95.2V74.2z"/>
</g>
<g>
	<path class="st3" d="M101.1,231.2L101.1,231.2L101.1,231.2 M1.3,58.3L1.3,58.3v115.3V58.3"/>
	<g>
		<g>
			<defs>
				<polyline id="SVGID_1_" points="1.3,0.6 201,0.6 201,231.2 1.3,231.2 1.3,0.6 				"/>
			</defs>
			<clipPath id="SVGID_2_">
				<use xlink:href="#SVGID_1_"  style="overflow:visible;"/>
			</clipPath>
			<path class="st4" d="M101,207.7l-79.5-45.9V70L101,24.1L180.5,70v91.8L101,207.7 M101.1,0.6L1.3,58.3v115.3l99.9,57.7l0,0
				l99.9-57.7V58.3L101.1,0.6"/>
		</g>
	</g>
</g>
</svg>
