<?xml version="1.0" encoding="utf-8"?>
<!-- Generator: Adobe Illustrator 23.0.3, SVG Export Plug-In . SVG Version: 6.00 Build 0)  -->
<svg version="1.1" id="instagram-logo" xmlns="http://www.w3.org/2000/svg" xmlns:xlink="http://www.w3.org/1999/xlink" x="0px"
	 y="0px" viewBox="0 0 40 40" style="enable-background:new 0 0 40 40;" xml:space="preserve">
<style type="text/css">
	.st0{fill:#FFFFFF;}
</style>
<path id="Path_13" class="st0" d="M29,0H11C4.9,0,0,4.9,0,11V29c0,6.1,4.9,11,11,11H29c6.1,0,11-4.9,11-11V11C40,4.9,35.1,0,29,0z
	 M36.5,29c0,4.1-3.4,7.5-7.5,7.5H11c-4.1,0-7.5-3.4-7.5-7.5V11c0-4.1,3.4-7.5,7.5-7.5H29c4.1,0,7.5,3.4,7.5,7.5V29z"/>
<path id="Path_14" class="st0" d="M20,9.7C14.3,9.7,9.7,14.3,9.7,20S14.3,30.3,20,30.3S30.3,25.7,30.3,20l0,0
	C30.3,14.3,25.7,9.7,20,9.7z M20,26.8c-3.7,0-6.8-3-6.8-6.8s3-6.8,6.8-6.8c3.7,0,6.8,3,6.8,6.8l0,0C26.8,23.7,23.7,26.8,20,26.8z"/>
<path id="Path_15" class="st0" d="M30.7,6.7c-1.4,0-2.6,1.2-2.6,2.6c0,1.4,1.2,2.6,2.6,2.6c1.4,0,2.6-1.2,2.6-2.6
	c0-0.7-0.3-1.3-0.8-1.8C32.1,7,31.4,6.7,30.7,6.7z"/>
</svg>
