<svg xmlns="http://www.w3.org/2000/svg" viewBox="0 0 50 24.999">
  <defs>
    <style>
      .cls-1 {
        fill: #1a1a1a;
      }
    </style>
  </defs>
  <path id="Path_11" data-name="Path 11" class="cls-1" d="M12.5,97.833h3.125V78.154A8.034,8.034,0,0,0,12.5,79.878ZM6.25,84.52V97.811l.2.022H9.375V84.5H6.452ZM0,91.164a6.7,6.7,0,0,0,3.125,5.689V85.481A6.688,6.688,0,0,0,0,91.164Zm18.75,6.669h3.125V79.022a7.8,7.8,0,0,0-3.125-1.116ZM43.548,84.5H41.791a10.251,10.251,0,0,0,.145-1.666,9.843,9.843,0,0,0-9.678-10A9.5,9.5,0,0,0,25,76.259V97.832H43.548a6.67,6.67,0,0,0,0-13.333Z" transform="translate(0 -72.834)"/>
</svg>
