<svg xmlns="http://www.w3.org/2000/svg" viewBox="0 0 45 45">
  <defs>
    <style>
      .cls-1 {
        fill: #1a1a1a;
      }
    </style>
  </defs>
  <path id="XMLID_86_" class="cls-1" d="M22.491,0A22.5,22.5,0,1,0,45,22.493,22.518,22.518,0,0,0,22.491,0ZM11.077,30.758a27.275,27.275,0,0,1,7.946-1.2A26.78,26.78,0,0,1,31.947,32.88a1.6,1.6,0,0,1,.541,1.073,2.3,2.3,0,0,1-.1,1.343,1.152,1.152,0,0,1-1.564.449,24.548,24.548,0,0,0-19.06-1.938,1.193,1.193,0,0,1-.346.052,1.142,1.142,0,0,1-1.1-.806C10.123,32.395,10.537,30.934,11.077,30.758ZM10.1,22.471A33.931,33.931,0,0,1,34.6,25.078a1.374,1.374,0,0,1,.694.81,1.4,1.4,0,0,1-.1,1.084c-.426.833-.923,1.393-1.238,1.393a1.441,1.441,0,0,1-.654-.161,31.091,31.091,0,0,0-22.47-2.379,1.424,1.424,0,0,1-.372.05A1.4,1.4,0,0,1,9.113,24.84C8.9,24.048,9.384,22.665,10.1,22.471Zm-.251-5.414a1.69,1.69,0,0,1-.4.049,1.652,1.652,0,0,1-1.607-1.252,1.9,1.9,0,0,1,1.2-2.229,41.933,41.933,0,0,1,9.991-1.217,40.9,40.9,0,0,1,18.421,4.325,1.662,1.662,0,0,1,.752,2.233,1.9,1.9,0,0,1-1.493,1.12,1.732,1.732,0,0,1-.726-.164,37.549,37.549,0,0,0-16.952-3.985A38.526,38.526,0,0,0,9.845,17.057Z"/>
</svg>
