<svg xmlns="http://www.w3.org/2000/svg" viewBox="0 0 45 30.938">
  <defs>
    <style>
      .cls-1 {
        fill: #1a1a1a;
      }
    </style>
  </defs>
  <path id="Path_12" data-name="Path 12" class="cls-1" d="M43.087,82.981c-1.221-2.171-2.545-2.571-5.243-2.723C35.151,80.076,28.375,80,22.506,80s-12.659.076-15.351.256c-2.692.155-4.019.551-5.251,2.725C.647,85.15,0,88.885,0,95.46v.022c0,6.548.647,10.311,1.9,12.457,1.232,2.171,2.557,2.565,5.248,2.748,2.694.157,9.472.25,15.353.25s12.645-.093,15.342-.248c2.7-.183,4.022-.577,5.243-2.748C44.359,105.8,45,102.033,45,95.486v-.022C45,88.885,44.359,85.15,43.087,82.981ZM16.875,103.906V87.031l14.063,8.438Z" transform="translate(0 -80)"/>
</svg>
