<?xml version="1.0" encoding="utf-8"?>
<!-- Generator: Adobe Illustrator 23.0.3, SVG Export Plug-In . SVG Version: 6.00 Build 0)  -->
<svg version="1.1" id="Lag_1" xmlns="http://www.w3.org/2000/svg" xmlns:xlink="http://www.w3.org/1999/xlink" x="0px" y="0px"
	 viewBox="0 0 24 44.4" style="enable-background:new 0 0 24 44.4;" xml:space="preserve">
<style type="text/css">
	.st0{fill:#FFFFFF;}
</style>
<path id="Path_10" class="st0" d="M23.1,0l-5.8,0C10.9,0,6.7,4.3,6.7,10.9v5H0.9C0.4,16,0,16.4,0,16.9c0,0,0,0,0,0v7.3
	c0,0.5,0.4,0.9,0.9,0.9h0h5.8v18.4c0,0.5,0.4,0.9,0.9,0.9c0,0,0,0,0,0h7.6c0.5,0,0.9-0.4,0.9-0.9V25.1h6.8c0.5,0,0.9-0.4,0.9-0.9
	c0,0,0,0,0,0v-7.3c0-0.5-0.4-0.9-0.9-0.9h-6.8v-4.3c0-2.1,0.5-3.1,3.2-3.1h3.9c0.5,0,0.9-0.4,0.9-0.9V0.9C24,0.4,23.6,0,23.1,0z"/>
</svg>
