<?xml version="1.0" encoding="utf-8"?>
<!-- Generator: Adobe Illustrator 23.0.3, SVG Export Plug-In . SVG Version: 6.00 Build 0)  -->
<svg version="1.1" id="Lag_1" xmlns="http://www.w3.org/2000/svg" xmlns:xlink="http://www.w3.org/1999/xlink" x="0px" y="0px"
	 viewBox="0 0 50 25" style="enable-background:new 0 0 50 25;" xml:space="preserve">
<style type="text/css">
	.st0{fill:#FFFFFF;}
</style>
<path id="Path_11" class="st0" d="M12.5,25h3.1V5.3c-1.2,0.3-2.2,0.9-3.1,1.7V25z M6.3,11.7V25l0.2,0h2.9V11.7H6.5L6.3,11.7z
	 M0,18.3c0,2.3,1.2,4.5,3.1,5.7V12.6C1.2,13.9,0,16,0,18.3z M18.8,25h3.1V6.2c-0.9-0.6-2-1-3.1-1.1V25z M43.5,11.7h-1.8
	c0.1-0.6,0.1-1.1,0.1-1.7c0.1-5.4-4.2-9.9-9.7-10c-2.8,0-5.5,1.3-7.3,3.4V25h18.5c3.7-0.1,6.6-3.2,6.5-6.9
	C49.9,14.6,47.1,11.8,43.5,11.7L43.5,11.7z"/>
</svg>
